<svg width="28" height="28" viewBox="0 0 28 28" fill="none" xmlns="http://www.w3.org/2000/svg">
<ellipse cx="13.9482" cy="14.0771" rx="13.7231" ry="13.5" fill="#FF9F38"/>
<path fill-rule="evenodd" clip-rule="evenodd" d="M20.2034 11.8613C20.4774 10.0883 19.0839 9.13496 17.1799 8.49884L17.7977 6.09647L16.2899 5.73273L15.6878 8.07166C15.2998 7.97723 14.9019 7.88929 14.5045 7.80149L14.5045 7.80148L14.4792 7.79589L15.0857 5.44173L13.5778 5.07715L12.96 7.47868L12.8941 7.46407L12.8941 7.46407C12.5887 7.39638 12.2881 7.32977 11.9967 7.25874L11.9984 7.25113L9.91815 6.74781L9.51676 8.30936C9.51676 8.30936 10.6363 8.55806 10.6127 8.57328C11.2236 8.72132 11.3335 9.11297 11.3152 9.42426L10.6119 12.1608C10.6538 12.1709 10.7079 12.1862 10.7689 12.209L10.6092 12.1709L9.62322 16.0046C9.54817 16.1839 9.35882 16.4538 8.93125 16.3514C8.94695 16.3725 7.83527 16.0866 7.83527 16.0866L7.08658 17.7598L9.04992 18.2344C9.2607 18.2857 9.46916 18.3385 9.67545 18.3907L9.67566 18.3907C9.82627 18.4288 9.97572 18.4666 10.1241 18.5034L9.50018 20.9328L11.0072 21.2966L11.625 18.8942C12.0368 19.0016 12.4365 19.1014 12.8274 19.1962L12.2113 21.5884L13.7192 21.9521L14.3431 19.5278C16.9155 19.9998 18.8492 19.8095 19.6633 17.5543C20.3195 15.739 19.631 14.6909 18.2776 14.0082C19.2637 13.7883 20.0054 13.1598 20.2034 11.8613ZM16.7565 16.5458C16.3298 18.2119 13.64 17.5231 12.4088 17.2078C12.2979 17.1794 12.1988 17.1541 12.1143 17.1337L12.9432 13.915C13.0463 13.94 13.1723 13.9675 13.3151 13.9985L13.3152 13.9986C14.5887 14.2759 17.1951 14.8435 16.7565 16.5458ZM13.571 12.5048C14.5969 12.7703 16.8339 13.3493 17.2234 11.8353C17.6218 10.2867 15.4471 9.82038 14.3849 9.59259C14.2651 9.56691 14.1595 9.54426 14.0733 9.52344L13.3229 12.4418C13.394 12.459 13.4774 12.4806 13.571 12.5048Z" fill="white"/>
</svg>
