<svg width="16" height="18" viewBox="0 0 16 18" fill="none" xmlns="http://www.w3.org/2000/svg">
<path d="M13.1513 5.07825C14.267 5.07825 15.1713 4.30665 15.1713 3.35485C15.1713 2.40305 14.267 1.63147 13.1513 1.63147C12.0357 1.63147 11.1313 2.40305 11.1313 3.35485C11.1313 4.30665 12.0357 5.07825 13.1513 5.07825Z" stroke="#808191" strokeWidth="1.5" strokeLinecap="round" stroke-linejoin="round"/>
<path d="M3.07169 11.067C4.22045 11.067 5.1517 10.2954 5.1517 9.34364C5.1517 8.39185 4.22045 7.62027 3.07169 7.62027C1.92294 7.62027 0.991699 8.39185 0.991699 9.34364C0.991699 10.2954 1.92294 11.067 3.07169 11.067Z" stroke="#808191" strokeWidth="1.5" strokeLinecap="round" stroke-linejoin="round"/>
<path d="M13.1513 17.0558C14.267 17.0558 15.1713 16.2842 15.1713 15.3324C15.1713 14.3806 14.267 13.609 13.1513 13.609C12.0357 13.609 11.1313 14.3806 11.1313 15.3324C11.1313 16.2842 12.0357 17.0558 13.1513 17.0558Z" stroke="#808191" strokeWidth="1.5" strokeLinecap="round" stroke-linejoin="round"/>
<path d="M5.31201 8.01239L10.912 4.68506" stroke="#808191" strokeWidth="1.5" strokeLinecap="round" stroke-linejoin="round"/>
<path d="M10.912 14.0011L5.31201 10.6738" stroke="#808191" strokeWidth="1.5" strokeLinecap="round" stroke-linejoin="round"/>
</svg>
